<?xml version="1.0" standalone="no"?><!DOCTYPE svg PUBLIC "-//W3C//DTD SVG 1.1//EN"
        "http://www.w3.org/Graphics/SVG/1.1/DTD/svg11.dtd">
<svg t="1705896797965" class="icon" viewBox="0 0 1024 1024" version="1.1" xmlns="http://www.w3.org/2000/svg"
     p-id="25308" width="200" height="200" data-spm-anchor-id="a313x.search_index.0.i13.6a4e3a81BEFoE2">
    <path d="M439.247369 815.356568L249.821095 705.936423a39.21869 39.21869 0 0 1-20.785905-35.296821v-217.271544a20.785906 20.785906 0 0 0-10.589047-18.432784L63.532317 345.51666a10.981233 10.981233 0 0 0-16.47185 9.412486v423.561854a36.473382 36.473382 0 0 0 18.432785 31.767139l367.086939 212.173113a10.981233 10.981233 0 0 0 16.47185-9.412485v-179.229414a21.57028 21.57028 0 0 0-9.804672-18.432785zM960.463761 334.927614l-154.913826 89.418613a21.57028 21.57028 0 0 0-10.589046 18.432785v228.252777a39.21869 39.21869 0 0 1-20.393719 35.296821l-189.034087 109.027958a22.354653 22.354653 0 0 0-10.589046 18.432785v178.837227a11.37342 11.37342 0 0 0 16.47185 9.804672l367.08694-212.173113a36.473382 36.473382 0 0 0 18.432784-31.767139V344.732286a10.981233 10.981233 0 0 0-16.47185-9.804672zM125.497848 235.312141l156.87476 90.202987a20.393719 20.393719 0 0 0 21.178093 0l189.426273-109.027958a39.21869 39.21869 0 0 1 39.21869 0l190.602835 110.204519 165.895059-95.693604a11.37342 11.37342 0 0 0 0-19.217158L530.626917 5.09843a36.473382 36.473382 0 0 0-36.865569 0L125.497848 217.271543A10.589046 10.589046 0 0 0 125.497848 235.312141zM677.304818 435.719648l-165.110685-95.301417-165.502873 95.301417v190.995021l165.502873 95.301417 165.110685-95.301417v-190.995021z"
          fill="#1296db" p-id="25309" data-spm-anchor-id="a313x.search_index.0.i12.6a4e3a81BEFoE2" class=""></path>
</svg>